<svg width="410" height="150" viewBox="0 0 410 150" fill="none" xmlns="http://www.w3.org/2000/svg" role="img" aria-labelledby="title desc">
  <title id="title">GitHub profile widget</title>
  <desc id="desc">Static profile widget generated from public GitHub data.</desc>
  <style>
    .card { fill: #0d1117; stroke: #30363d; stroke-width: 1; }
    .title { fill: #e6edf3; font: 600 16px -apple-system, BlinkMacSystemFont, 'Segoe UI', Helvetica, Arial, sans-serif; }
    .text { fill: #c9d1d9; font: 400 13px -apple-system, BlinkMacSystemFont, 'Segoe UI', Helvetica, Arial, sans-serif; }
    .muted { fill: #8b949e; font: 400 12px -apple-system, BlinkMacSystemFont, 'Segoe UI', Helvetica, Arial, sans-serif; }
    .num { fill: #58a6ff; font: 700 24px -apple-system, BlinkMacSystemFont, 'Segoe UI', Helvetica, Arial, sans-serif; }
    .accent { fill: #58a6ff; }
  </style>
  <rect class="card" x="0.5" y="0.5" width="409" height="149" rx="12" />

  <text class="title" x="22" y="34">Top languages</text>
  <text class="muted" x="22" y="52">Aggregated from public non-fork repositories</text>
  <rect x="22" y="60" width="167" height="10" rx="5" fill="#DA5B0B" />
  <rect x="189" y="60" width="67" height="10" rx="5" fill="#3572A5" />
  <rect x="256" y="60" width="61" height="10" rx="5" fill="#3178c6" />
  <rect x="317" y="60" width="38" height="10" rx="5" fill="#A97BFF" />
  <rect x="355" y="60" width="18" height="10" rx="5" fill="#89e051" />
  <rect x="373" y="60" width="15" height="10" rx="5" fill="#8b949e" />
  <circle cx="27" cy="94" r="5" fill="#DA5B0B" />
  <text class="text" x="40" y="98">Jupyter Notebook 42.5%</text>
  <circle cx="27" cy="116" r="5" fill="#3572A5" />
  <text class="text" x="40" y="120">Python 17.1%</text>
  <circle cx="27" cy="138" r="5" fill="#3178c6" />
  <text class="text" x="40" y="142">TypeScript 15.5%</text>
  <circle cx="220" cy="94" r="5" fill="#A97BFF" />
  <text class="text" x="233" y="98">Kotlin 9.7%</text>
  <circle cx="220" cy="116" r="5" fill="#89e051" />
  <text class="text" x="233" y="120">Shell 4.5%</text>
  <circle cx="220" cy="138" r="5" fill="#8b949e" />
  <text class="text" x="233" y="142">PowerShell 3.8%</text>

</svg>
