<svg width="1200" height="360" viewBox="0 0 1200 360" fill="none" xmlns="http://www.w3.org/2000/svg" role="img" aria-labelledby="title desc">
  <title id="title">ooodnakov — risk analysis, AI, homelab</title>
  <desc id="desc">Minimal dark banner with a signal line, soft grid and compact profile text.</desc>
  <defs>
    <linearGradient id="bg" x1="0" y1="0" x2="1200" y2="360" gradientUnits="userSpaceOnUse">
      <stop offset="0" stop-color="#080B12"/>
      <stop offset="0.55" stop-color="#0D1117"/>
      <stop offset="1" stop-color="#101827"/>
    </linearGradient>
    <linearGradient id="accent" x1="126" y1="246" x2="1038" y2="111" gradientUnits="userSpaceOnUse">
      <stop offset="0" stop-color="#7DD3FC"/>
      <stop offset="0.5" stop-color="#A78BFA"/>
      <stop offset="1" stop-color="#34D399"/>
    </linearGradient>
    <radialGradient id="glow" cx="0" cy="0" r="1" gradientUnits="userSpaceOnUse" gradientTransform="translate(935 80) rotate(143.7) scale(382 220)">
      <stop stop-color="#2F81F7" stop-opacity="0.24"/>
      <stop offset="1" stop-color="#2F81F7" stop-opacity="0"/>
    </radialGradient>
    <filter id="softGlow" x="-60" y="-60" width="1320" height="480" filterUnits="userSpaceOnUse" color-interpolation-filters="sRGB">
      <feGaussianBlur stdDeviation="7" result="blur"/>
      <feColorMatrix in="blur" type="matrix" values="0 0 0 0 0.30 0 0 0 0 0.64 0 0 0 0 1 0 0 0 0.45 0"/>
      <feBlend in="SourceGraphic" mode="screen"/>
    </filter>
    <pattern id="grid" width="42" height="42" patternUnits="userSpaceOnUse">
      <path d="M42 0H0V42" stroke="#94A3B8" stroke-opacity="0.075" stroke-width="1"/>
    </pattern>
  </defs>

  <rect width="1200" height="360" rx="32" fill="url(#bg)"/>
  <rect width="1200" height="360" rx="32" fill="url(#grid)"/>
  <rect width="1200" height="360" rx="32" fill="url(#glow)"/>

  <g opacity="0.55">
    <circle cx="108" cy="82" r="2" fill="#E5E7EB"/>
    <circle cx="194" cy="124" r="2" fill="#E5E7EB"/>
    <circle cx="1014" cy="246" r="2" fill="#E5E7EB"/>
    <circle cx="1094" cy="198" r="2" fill="#E5E7EB"/>
    <path d="M108 82L194 124M1014 246L1094 198" stroke="#E5E7EB" stroke-opacity="0.22"/>
  </g>

  <g filter="url(#softGlow)">
    <path d="M126 244C197 179 246 229 306 187C368 144 405 85 470 126C532 165 566 254 632 213C697 173 712 91 782 103C845 114 867 202 928 180C976 162 996 121 1038 112" stroke="url(#accent)" stroke-width="5" stroke-linecap="round"/>
    <path d="M126 244C197 179 246 229 306 187C368 144 405 85 470 126C532 165 566 254 632 213C697 173 712 91 782 103C845 114 867 202 928 180C976 162 996 121 1038 112" stroke="#FFFFFF" stroke-opacity="0.16" stroke-width="1.2" stroke-linecap="round"/>
  </g>

  <g>
    <circle cx="470" cy="126" r="7" fill="#0D1117" stroke="#A78BFA" stroke-width="3"/>
    <circle cx="632" cy="213" r="7" fill="#0D1117" stroke="#34D399" stroke-width="3"/>
    <circle cx="782" cy="103" r="7" fill="#0D1117" stroke="#7DD3FC" stroke-width="3"/>
    <circle cx="1038" cy="112" r="7" fill="#0D1117" stroke="#34D399" stroke-width="3"/>
  </g>

  <g transform="translate(88 82)">
    <rect x="0" y="0" width="438" height="154" rx="22" fill="#0B1220" fill-opacity="0.78" stroke="#334155" stroke-opacity="0.55"/>
    <text x="28" y="56" fill="#F8FAFC" font-family="Inter, Segoe UI, Helvetica, Arial, sans-serif" font-size="42" font-weight="700" letter-spacing="-1.3">ooodnakov</text>
    <text x="30" y="95" fill="#CBD5E1" font-family="JetBrains Mono, SFMono-Regular, Consolas, monospace" font-size="17" letter-spacing="0.3">risk analysis × AI × homelab</text>
    <text x="30" y="125" fill="#94A3B8" font-family="Inter, Segoe UI, Helvetica, Arial, sans-serif" font-size="16">quiet automation · local-first systems · practical tools</text>
  </g>

  <g transform="translate(834 246)">
    <rect x="0" y="0" width="268" height="48" rx="24" fill="#0B1220" fill-opacity="0.72" stroke="#334155" stroke-opacity="0.45"/>
    <circle cx="31" cy="24" r="6" fill="#34D399"/>
    <text x="52" y="30" fill="#CBD5E1" font-family="JetBrains Mono, SFMono-Regular, Consolas, monospace" font-size="15">dnakov.ooo</text>
  </g>
</svg>
